<svg fill="none" height="512" viewBox="0 0 128 128" width="512" xmlns="http://www.w3.org/2000/svg"><path clip-rule="evenodd" d="m16 30c0-4.4183 3.5817-8 8-8h80c4.418 0 8 3.5817 8 8v65c0 4.4183-3.582 8-8 8h-80c-4.4183 0-8-3.5817-8-8zm4 0c0-2.2091 1.7909-4 4-4h16v19h-20zm0 19v11.5h28v-5.5c0-3.3137-2.6863-6-6-6zm0 15.5v11.5h22c3.3137 0 6-2.6863 6-6v-5.5zm20 34.5h-16c-2.2091 0-4-1.7909-4-4v-15h20zm4 0h40v-19.2c-3.9182-.7954-7.0046-3.8817-7.7999-7.8h-24.4001c-.7954 3.9183-3.8817 7.0046-7.8 7.8zm44 0h16c2.209 0 4-1.7909 4-4v-15h-20zm20-23v-11.5h-28v5.5c0 3.3137 2.6863 6 6 6zm0-15.5v-11.5h-22c-3.3137 0-6 2.6863-6 6v5.5zm0-15.5v-15c0-2.2091-1.791-4-4-4h-16v19zm-24-19h-40v19.2c3.9183.7954 7.0046 3.8817 7.8 7.8h24.4001c.7953-3.9183 3.8817-7.0046 7.7999-7.8zm-32 42v-11h24v11z" fill="rgb(0,0,0)" fill-rule="evenodd"/></svg>