<svg fill="none" height="25" viewBox="0 0 24 25" width="24" xmlns="http://www.w3.org/2000/svg"><g clip-rule="evenodd" fill="rgb(0,0,0)" fill-rule="evenodd"><path d="m11.9428 2.0271h.1144c2.1907-.00001 3.9114-.00002 5.2548.18059 1.3766.18509 2.4689.57212 3.3271 1.43032s1.2452 1.95046 1.4303 3.32711c.1806 1.34342.1806 3.06408.1806 5.25478v.1144c0 2.1907 0 3.9114-.1806 5.2548-.1851 1.3766-.5721 2.4689-1.4303 3.3271s-1.9505 1.2452-3.3271 1.4303c-1.3434.1806-3.0641.1806-5.2548.1806h-.1144c-2.19068 0-3.91136 0-5.25478-.1806-1.37665-.1851-2.46891-.5721-3.32711-1.4303-.85819-.8582-1.24523-1.9505-1.43032-3.3271-.18061-1.3434-.1806-3.0641-.18059-5.2548v-.1144c-.00001-2.1907-.00002-3.91136.18059-5.25478.18509-1.37665.57213-2.46891 1.43032-3.32711.8582-.8582 1.95046-1.24523 3.32711-1.43032 1.34342-.18061 3.0641-.1806 5.25478-.18059zm-5.0549 1.66722c-1.21033.16272-1.93328.47131-2.46633 1.00435-.53304.53305-.84163 1.256-1.00435 2.46632-.16563 1.2319-.16722 2.85171-.16722 5.11211s.00159 3.8802.16722 5.1121c.16272 1.2103.47131 1.9333 1.00435 2.4663.53305.5331 1.256.8417 2.46633 1.0044 1.23189.1656 2.85173.1672 5.1121.1672 2.2604 0 3.8802-.0016 5.1121-.1672 1.2103-.1627 1.9333-.4713 2.4663-1.0044.5331-.533.8417-1.256 1.0044-2.4663.1656-1.2319.1672-2.8517.1672-5.1121s-.0016-3.88021-.1672-5.11211c-.1627-1.21032-.4713-1.93327-1.0044-2.46632-.533-.53304-1.256-.84163-2.4663-1.00435-1.2319-.16563-2.8517-.16722-5.1121-.16722-2.26037 0-3.88021.00159-5.1121.16722z"/><path d="m7.46967 7.74677c.29289-.29289.76777-.29289 1.06066 0l3.46967 3.46963 3.4697-3.46963c.2929-.29289.7677-.29289 1.0606 0s.2929.76777 0 1.06066l-3.4696 3.46967 3.4696 3.4697c.2929.2929.2929.7677 0 1.0606s-.7677.2929-1.0606 0l-3.4697-3.4696-3.46967 3.4696c-.29289.2929-.76777.2929-1.06066 0s-.29289-.7677 0-1.0606l3.46963-3.4697-3.46963-3.46967c-.29289-.29289-.29289-.76777 0-1.06066z"/></g></svg>