<svg fill="none" height="24" viewBox="0 0 24 24" width="24" xmlns="http://www.w3.org/2000/svg"><path clip-rule="evenodd" d="m15.8531 3.60579c.494-.24699 1.0946-.04676 1.3416.44722 1.1742 2.34839 1.8056 5.103 1.8056 7.94719 0 2.8534-.6352 5.5005-1.7979 7.9315-.2382.4982-.8353.7089-1.3336.4707-.4982-.2383-.7089-.8354-.4706-1.3336 1.0373-2.1691 1.6021-4.522 1.6021-7.0686 0-2.55577-.5686-5.00116-1.5944-7.05277-.247-.49398-.0468-1.09465.4472-1.34164zm-3.559 1.58072c.5047-.22431 1.0956.00298 1.3199.50767.8499 1.91222 1.3862 4.15006 1.3862 6.30612 0 2.163-.5396 4.3012-1.3862 6.2062-.2243.5046-.8152.7319-1.3199.5076s-.732-.8152-.5077-1.3199c.7534-1.6951 1.2138-3.5569 1.2138-5.3939 0-1.8439-.4637-3.80607-1.2138-5.49384-.2243-.50469.003-1.09565.5077-1.31995zm-3.64096 1.81918c.49398-.24699 1.09465-.04676 1.34164.44722.68162 1.36314 1.00562 3.02159 1.00562 4.54719 0 1.5428-.3307 3.086-.9921 4.5191-.23143.5014-.82555.7203-1.327.4889-.50146-.2315-.72034-.8256-.48891-1.327.53858-1.1669.80796-2.4238.80796-3.681 0-1.2744-.27599-2.61591-.79442-3.65277-.24699-.49397-.04677-1.09465.44721-1.34164zm-3.5468 1.67548c.50763-.21755 1.09551.0176 1.31306.52523.34977.8161.58086 1.8497.58086 2.7939 0 .9609-.23854 1.8952-.58086 2.6939-.21755.5077-.80543.7428-1.31306.5253-.50763-.2176-.74278-.8055-.52523-1.3131.25769-.6013.41915-1.267.41915-1.9061 0-.6557-.16891-1.4222-.41915-2.00606-.21755-.50763.0176-1.09551.52523-1.31307z" fill="rgb(0,0,0)" fill-rule="evenodd"/></svg>