<svg id="Layer_2" viewBox="0 0 16 16" xmlns="http://www.w3.org/2000/svg" data-name="Layer 2"><path d="m7.269.6924a.4945.4945 0 0 0 -.489-.1831 7.6523 7.6523 0 0 0 -6.28 7.4207 7.7078 7.7078 0 0 0 7.8223 7.57 7.8519 7.8519 0 0 0 7.1308-4.4687.5.5 0 0 0 -.5483-.7022 7.093 7.093 0 0 1 -1.3521.1309 6.707 6.707 0 0 1 -6.8227-6.5694 6.3093 6.3093 0 0 1 .5981-2.68.4984.4984 0 0 0 -.0591-.5182zm6.813 10.75a6.8967 6.8967 0 0 1 -5.7597 3.0576 6.7073 6.7073 0 0 1 -6.8223-6.57 6.6111 6.6111 0 0 1 4.5566-6.1971 7.2623 7.2623 0 0 0 -.3266 2.1577 7.7525 7.7525 0 0 0 8.352 7.5518z"/></svg>