<?xml version="1.0" encoding="UTF-8"?>
<svg xmlns="http://www.w3.org/2000/svg" viewBox="0 0 24 24" width="512" height="512"><g id="Layer_52" data-name="Layer 52"><path d="M22.75,6A4.75,4.75,0,0,0,18,1.25H6A4.75,4.75,0,0,0,1.25,6V18a.09.09,0,0,0,0,.05v0A4.75,4.75,0,0,0,6,22.75H18a4.75,4.75,0,0,0,4.74-4.68s0,0,0,0V6ZM6,2.75H18A3.26,3.26,0,0,1,21.25,6V16l-4.18-4.78a2.84,2.84,0,0,0-4.14,0L10.06,14.5l-.94-1.14a2.76,2.76,0,0,0-4.24,0L2.75,15.93V6A3.26,3.26,0,0,1,6,2.75Zm12,18.5H6a3.25,3.25,0,0,1-3.23-3L6,14.32a1.29,1.29,0,0,1,1.92,0l1.51,1.82a.74.74,0,0,0,.57.27.8.8,0,0,0,.57-.26l3.44-3.94a1.31,1.31,0,0,1,1.9,0l5.27,6A3.24,3.24,0,0,1,18,21.25Z"/><path d="M7,9.75A2.75,2.75,0,1,0,4.25,7,2.75,2.75,0,0,0,7,9.75Zm0-4A1.25,1.25,0,1,1,5.75,7,1.25,1.25,0,0,1,7,5.75Z"/></g></svg>
