<svg enable-background="new 0 0 512 512" viewBox="0 0 512 512" xmlns="http://www.w3.org/2000/svg"><g id="_x30_6_Location"><g><path d="m255.976 6.037c-114.434 0-207.502 93.117-207.502 207.502 0 80.337 47.022 154.188 119.799 188.137 26.731 12.487 49.217 34.828 63.265 62.972l18.975 37.95c1.073 2.049 3.17 3.366 5.463 3.366 2.341 0 4.439-1.317 5.463-3.366l18.975-37.95c14.048-28.145 36.535-50.485 63.314-62.972 72.777-33.95 119.799-107.8 119.799-188.137 0-114.385-93.118-207.502-207.551-207.502zm-.732 69.313c75.021 0 136.042 61.021 136.042 136.042 0 74.972-61.021 135.993-136.042 135.993s-136.042-61.021-136.042-135.993c0-75.02 61.021-136.042 136.042-136.042z"/></g></g><g id="Layer_1"/></svg>