<svg id="Layer_2" viewBox="0 0 32 32" xmlns="http://www.w3.org/2000/svg" data-name="Layer 2"><path d="m26.69 7.8c-1.97-4.13-6.03-6.74-10.6-6.8-4.58-.06-8.64 2.46-10.68 6.6-2.12 4.29-1.62 9.26 1.32 12.99l7.59 9.64c.39.49.97.77 1.59.77s1.2-.28 1.59-.77l7.79-9.9c2.83-3.6 3.36-8.39 1.4-12.52zm-2.96 11.29-7.83 9.9-7.59-9.64c-2.45-3.11-2.87-7.28-1.1-10.86 1.7-3.44 4.95-5.48 8.71-5.48h.15c3.86.06 7.16 2.17 8.82 5.66s1.23 7.38-1.16 10.42z"/><path d="m15.91 7.16c-3.01 0-5.46 2.45-5.46 5.46s2.45 5.46 5.46 5.46 5.46-2.45 5.46-5.46-2.45-5.46-5.46-5.46zm0 8.91c-1.91 0-3.46-1.55-3.46-3.46s1.55-3.46 3.46-3.46 3.46 1.55 3.46 3.46-1.55 3.46-3.46 3.46z"/></svg>