<svg viewBox="0 0 32 32" xmlns="http://www.w3.org/2000/svg"><g id="Icon"><path d="m22.56 30a5.16 5.16 0 0 1 -2-.41 34.53 34.53 0 0 1 -18.16-18.17 5 5 0 0 1 1.06-5.51l3-3a3 3 0 0 1 4.24 0l3.53 3.53a3 3 0 0 1 0 4.24l-1.63 1.65a12.54 12.54 0 0 0 7.07 7.07l1.68-1.67a3 3 0 0 1 4.24 0l3.53 3.53a3 3 0 0 1 0 4.24l-3 3a5 5 0 0 1 -3.56 1.5zm-13.94-26a1 1 0 0 0 -.71.29l-3 3a3 3 0 0 0 -.64 3.31 32.47 32.47 0 0 0 17.1 17.16 3 3 0 0 0 3.31-.64l3-3a1 1 0 0 0 0-1.42l-3.54-3.53a1 1 0 0 0 -1.41 0l-2.12 2.12a1 1 0 0 1 -1 .24 14.42 14.42 0 0 1 -9.12-9.12 1 1 0 0 1 .24-1l2.12-2.12a1 1 0 0 0 .29-.71 1 1 0 0 0 -.29-.7l-3.52-3.59a1 1 0 0 0 -.71-.29z"/></g></svg>