<svg height="512" viewBox="0 0 24 24" width="512" xmlns="http://www.w3.org/2000/svg"><g id="Layer_2" data-name="Layer 2"><path d="m12 22.60742a1.74657 1.74657 0 0 1 -.8501-.22168l-3.3706-1.87256a10.7559 10.7559 0 0 1 -5.5293-9.397v-5.19577a1.74713 1.74713 0 0 1 1.56836-1.73877 17.31875 17.31875 0 0 0 3.93213-.88864 17.29508 17.29508 0 0 0 3.335-1.59766h.00049a1.75355 1.75355 0 0 1 1.82812 0 17.313 17.313 0 0 0 3.33541 1.59766 17.31875 17.31875 0 0 0 3.93213.88867 1.74713 1.74713 0 0 1 1.56836 1.73874v5.1958a10.7559 10.7559 0 0 1 -5.5293 9.397l-3.3706 1.87256a1.74657 1.74657 0 0 1 -.8501.22165zm-.12549-19.63574a18.83986 18.83986 0 0 1 -3.625 1.73532 18.758 18.758 0 0 1 -4.273.96582.24763.24763 0 0 0 -.22651.24759v5.1958a9.25477 9.25477 0 0 0 4.75781 8.08545l3.37061 1.87256a.24544.24544 0 0 0 .24316 0l3.37061-1.87256a9.25477 9.25477 0 0 0 4.75781-8.08545v-5.1958a.24763.24763 0 0 0 -.22656-.24756 18.758 18.758 0 0 1 -4.273-.96582 18.83986 18.83986 0 0 1 -3.625-1.73535.24152.24152 0 0 0 -.251 0z"/><path d="m14.5 17.25h-5a2.25246 2.25246 0 0 1 -2.25-2.25v-3a2.25246 2.25246 0 0 1 2.25-2.25h5a2.25246 2.25246 0 0 1 2.25 2.25v3a2.25246 2.25246 0 0 1 -2.25 2.25zm-5-6a.75083.75083 0 0 0 -.75.75v3a.75083.75083 0 0 0 .75.75h5a.75083.75083 0 0 0 .75-.75v-3a.75083.75083 0 0 0 -.75-.75z"/><path d="m14 11.25h-4a.7502.7502 0 0 1 -.75-.75v-2a2.75 2.75 0 0 1 5.5 0v2a.7502.7502 0 0 1 -.75.75zm-3.25-1.5h2.5v-1.25a1.25 1.25 0 0 0 -2.5 0z"/></g></svg>