<svg fill="none" height="512" viewBox="0 0 24 24" width="512" xmlns="http://www.w3.org/2000/svg"><g clip-rule="evenodd" fill="rgb(0,0,0)" fill-rule="evenodd"><path d="m12 2c-2.76142 0-5 2.23858-5 5s2.23858 5 5 5c2.7614 0 5-2.23858 5-5s-2.2386-5-5-5z"/><path d="m12 13c-3.96317 0-6.51231 1.4462-7.86162 3.655-.83744 1.3709-.51691 2.7976.33926 3.7924.82131.9544 2.14463 1.5526 3.52235 1.5526h8.00001c1.3777 0 2.701-.5982 3.5224-1.5526.8561-.9948 1.1767-2.4215.3392-3.7924-1.3493-2.2088-3.8984-3.655-7.8616-3.655z"/></g></svg>