<svg fill="none" height="24" viewBox="0 0 24 24" width="24" xmlns="http://www.w3.org/2000/svg"><g clip-rule="evenodd" fill="rgb(0,0,0)" fill-rule="evenodd"><path d="m12.7388 2.5c-4.54304 0-8.23904 3.695-8.23904 8.238s3.696 8.239 8.23904 8.239c4.542 0 8.238-3.696 8.238-8.239s-3.696-8.238-8.238-8.238zm0 17.977c-5.37004 0-9.73904-4.369-9.73904-9.739s4.369-9.738 9.73904-9.738c5.37 0 9.738 4.368 9.738 9.738s-4.368 9.739-9.738 9.739z"/><path d="m22.5142 21.7217c-.191 0-.383-.073-.53-.219l-3.524-3.514c-.293-.293-.294-.768-.001-1.061.292-.295.767-.293 1.061-.002l3.524 3.515c.293.293.294.767.001 1.06-.146.148-.339.221-.531.221z"/></g></svg>