<?xml version="1.0" encoding="UTF-8"?>
<svg xmlns="http://www.w3.org/2000/svg" viewBox="0 0 32 32" width="512" height="512"><defs><style>.b`{fill:rgb(0,0,0);}</style></defs><g id="al"><g><path class="b`" d="M3,11H7.101c1.133,5.291,8.666,5.29,9.798,0h12.101c1.304-.019,1.323-1.977,0-2h-12.101c-.465-2.279-2.484-4-4.899-4s-4.434,1.721-4.899,4H3c-1.307,.02-1.32,1.977,0,2ZM12,7c3.956,.104,3.955,5.897,0,6-3.956-.104-3.955-5.897,0-6Z"/><path class="b`" d="M29,21h-4.101c-1.133-5.291-8.666-5.29-9.798,0H3c-1.304,.019-1.323,1.977,0,2H15.101c.465,2.279,2.484,4,4.899,4s4.434-1.721,4.899-4h4.101c1.307-.02,1.32-1.978,0-2Zm-9,4c-3.956-.104-3.955-5.897,0-6,3.956,.104,3.955,5.897,0,6Z"/></g></g></svg>
