<svg fill="none" height="512" viewBox="0 0 24 24" width="512" xmlns="http://www.w3.org/2000/svg"><g clip-rule="evenodd" fill="rgb(0,0,0)" fill-rule="evenodd"><path d="m6.25 9c0-.41421.33579-.75.75-.75h6c.4142 0 .75.33579.75.75s-.3358.75-.75.75h-6c-.41421 0-.75-.33579-.75-.75z"/><path d="m18.9202 10.7002c-.359 0-.6748.1392-.9026.3732l-.0135.0135c-.266.2597-.4146.6294-.3772 1.0222l.0008.0088c.0529.635.6634 1.1823 1.4125 1.1823h1.9428c.1617-.0105.2672-.1369.2672-.27v-2.06c0-.1332-.1055-.2596-.2672-.27zm-1.9707-.6801c.5117-.52176 1.2131-.8199 1.9707-.8199h2.08c.009 0 .0179.00015.0268.00047.953.03404 1.7232.80523 1.7232 1.76953v2.06c0 .9643-.7702 1.7355-1.7232 1.7695-.0089.0003-.0178.0005-.0268.0005h-1.96c-1.4095 0-2.7776-1.0307-2.907-2.5533-.0807-.8622.2475-1.6677.8163-2.2268z"/><path d="m7 4.25c-.24425 0-.47602.01744-.69595.05128l-.02066.00288c-1.10733.13896-1.9778.61305-2.57384 1.31235-.59758.7011-.95955 1.67636-.95955 2.88349v7c0 1.3296.43991 2.3793 1.15533 3.0947s1.76511 1.1553 3.09467 1.1553h9c1.3296 0 2.3793-.4399 3.0947-1.1553s1.1553-1.7651 1.1553-3.0947v-.7h-1.21c-1.4096 0-2.7777-1.0307-2.907-2.5533-.0808-.8622.2475-1.6677.8163-2.2267.5116-.52185 1.213-.81999 1.9707-.81999h1.33v-.70001c0-1.2153-.3683-2.19664-.9753-2.90001-.6056-.70177-1.4896-1.17458-2.6113-1.30502-.0123-.00143-.0245-.00316-.0367-.00519-.1799-.02998-.3821-.03978-.6267-.03978zm-.91367-1.43287c.2968-.04509.60156-.06713.91367-.06713h9c.2697 0 .5608.00975.8545.05711 1.4505.17263 2.685.80379 3.5558 1.81289.873 1.01163 1.3397 2.3553 1.3397 3.88v1.45001c0 .41419-.3358.74999-.75.74999h-2.08c-.3591 0-.6749.1392-.9027.3732l-.0134.0135c-.2661.2597-.4147.6295-.3773 1.0222l.0009.0088h-.0001c.0529.635.6635 1.1823 1.4126 1.1823h1.96c.4142 0 .75.3358.75.75v1.45c0 1.6704-.5601 3.1207-1.5947 4.1553s-2.4849 1.5947-4.1553 1.5947h-9c-1.67044 0-3.12075-.5601-4.15533-1.5947s-1.59467-2.4849-1.59467-4.1553v-7c0-1.51287.45803-2.84761 1.31796-3.85651.85941-1.0083 2.08016-1.64359 3.51837-1.82636z"/></g></svg>