<?xml version="1.0"?>
<svg xmlns="http://www.w3.org/2000/svg" viewBox="0 0 32 32"><g id="Layer"><path d="M16,2A14,14,0,1,0,30,16,14,14,0,0,0,16,2Zm10.89,9H22.55a16.91,16.91,0,0,0-2.33-6.22A12,12,0,0,1,26.89,11ZM21,16a26.07,26.07,0,0,1-.17,3H11.17a26.56,26.56,0,0,1,0-6h9.66A26.07,26.07,0,0,1,21,16ZM16,4c1.75,0,3.65,2.71,4.52,7h-9C12.35,6.71,14.25,4,16,4Zm-4.22.78A16.91,16.91,0,0,0,9.45,11H5.11A12,12,0,0,1,11.78,4.78ZM4,16a12.33,12.33,0,0,1,.39-3H9.16a28.2,28.2,0,0,0,0,6H4.39A12.33,12.33,0,0,1,4,16Zm1.11,5H9.45a16.91,16.91,0,0,0,2.33,6.22A12,12,0,0,1,5.11,21ZM16,28c-1.75,0-3.65-2.71-4.52-7h9C19.65,25.29,17.75,28,16,28Zm4.22-.78A16.91,16.91,0,0,0,22.55,21h4.34A12,12,0,0,1,20.22,27.22ZM22.84,19A29.06,29.06,0,0,0,23,16a29.06,29.06,0,0,0-.16-3h4.77a11.73,11.73,0,0,1,0,6Z"/></g></svg>
